<svg xmlns="http://www.w3.org/2000/svg" fill="none" viewBox="0 0 48 48"><path fill-opacity=".01" fill="#fff" d="M0 0h48v48H0z"/><path fill-opacity=".01" fill="#fff" d="M48 0H0v48h48V0z"/><path stroke-linejoin="round" stroke-width="4" stroke="currentColor" d="M41 18H19a1 1 0 0 0-1 1v22a1 1 0 0 0 1 1h22a1 1 0 0 0 1-1V19a1 1 0 0 0-1-1z" data-follow-stroke="#333"/><path stroke-linejoin="round" stroke-linecap="round" stroke-width="4" stroke="currentColor" d="M9.97 6H6v4.034M9.997 30H6v-3.988M26.002 6H30v4.015M16.028 6h3.98M6 16v4M30 16v2.007" data-follow-stroke="#333"/><path stroke-linecap="round" stroke-width="4" stroke="currentColor" d="M15.993 30H18" data-follow-stroke="#333"/></svg>