<svg xmlns="http://www.w3.org/2000/svg" fill="none" viewBox="0 0 48 48"><path fill-opacity=".01" fill="#fff" d="M0 0h48v48H0z"/><path fill-opacity=".01" fill="#fff" d="M48 0H0v48h48V0z"/><path stroke-linejoin="round" stroke-linecap="round" stroke-width="4" stroke="currentColor" d="M30 18h11a1 1 0 0 1 1 1v22a1 1 0 0 1-1 1H19a1 1 0 0 1-1-1V30M9.97 6H6v4.034M9.997 30H6v-3.988" data-follow-stroke="#333"/><path stroke-linejoin="round" stroke-linecap="round" stroke-width="4" stroke="currentColor" d="M26 30h3.997v-3.988M26.002 6H30v3.998" data-follow-stroke="#333"/><path stroke-linecap="round" stroke-width="4" stroke="currentColor" d="M16.028 6h3.98" data-follow-stroke="#333"/><path stroke-linejoin="round" stroke-linecap="round" stroke-width="4" stroke="currentColor" d="M6 16v4.015M30 16v4.015M15.993 30H20" data-follow-stroke="#333"/></svg>