<svg xmlns="http://www.w3.org/2000/svg" fill="none" viewBox="0 0 48 48"><path fill-opacity=".01" fill="#fff" d="M0 0h48v48H0z"/><path stroke-linejoin="round" stroke-width="4" stroke="currentColor" d="M11.273 4H4v7.273h7.273V4zM44 36.727h-7.273V44H44v-7.273zM11.273 24H4v7.273h7.273V24zM24 36.727h-7.273V44H24v-7.273zM31.273 4H24v7.273h7.273V4zM44 16.727h-7.273V24H44v-7.273z" data-follow-stroke="#333"/><path stroke-linejoin="round" stroke-linecap="round" stroke-width="4" stroke="currentColor" d="M11.273 7.636H24M24 40.364h12.727M11.273 27.636h16.364V11.273M28.828 20.364h7.9M20.363 36.727V27.63v9.098zM7.636 11.273V24M40.364 24v12.727" data-follow-stroke="#333"/></svg>