<svg xmlns="http://www.w3.org/2000/svg" fill="none" viewBox="0 0 48 48"><path fill-opacity=".01" fill="#fff" d="M0 0h48v48H0z"/><path stroke-linejoin="round" stroke-linecap="round" stroke-width="4" stroke="#333" d="M24 44c11.046 0 20-8.954 20-20S35.046 4 24 4 4 12.954 4 24s8.954 20 20 20z" clip-rule="evenodd" data-follow-stroke="#333"/><path stroke-linejoin="round" stroke-linecap="round" stroke-width="4" stroke="#333" d="M4 24h40" data-follow-stroke="#333"/><path stroke-linejoin="round" stroke-linecap="round" stroke-width="4" stroke="#333" d="M24 44c4.418 0 8-8.954 8-20S28.418 4 24 4s-8 8.954-8 20 3.582 20 8 20z" clip-rule="evenodd" data-follow-stroke="#333"/><path stroke-linejoin="round" stroke-linecap="round" stroke-width="4" stroke="#333" d="M9.858 10.142A19.937 19.937 0 0 0 24 16v0a19.937 19.937 0 0 0 14.142-5.858M38.142 37.858A19.937 19.937 0 0 0 24 32a19.937 19.937 0 0 0-14.142 5.858" data-follow-stroke="#333"/></svg>