<svg xmlns="http://www.w3.org/2000/svg" fill="none" viewBox="0 0 48 48"><path fill-opacity=".01" fill="#fff" d="M0 0h48v48H0z"/><path fill-opacity=".01" fill="#fff" d="M48 0H0v48h48V0z"/><path stroke-linejoin="round" stroke-width="4" stroke="#333" d="M44 4H4v16h40V4zM44 28H4v16h40V28z" data-follow-stroke="#333"/><path fill="#333" d="M13 10h-2a1 1 0 0 0-1 1v2a1 1 0 0 0 1 1h2a1 1 0 0 0 1-1v-2a1 1 0 0 0-1-1zM13 34h-2a1 1 0 0 0-1 1v2a1 1 0 0 0 1 1h2a1 1 0 0 0 1-1v-2a1 1 0 0 0-1-1zM21 10h-2a1 1 0 0 0-1 1v2a1 1 0 0 0 1 1h2a1 1 0 0 0 1-1v-2a1 1 0 0 0-1-1zM21 34h-2a1 1 0 0 0-1 1v2a1 1 0 0 0 1 1h2a1 1 0 0 0 1-1v-2a1 1 0 0 0-1-1z" data-follow-fill="#333"/></svg>