<svg xmlns="http://www.w3.org/2000/svg" fill="none" viewBox="0 0 48 49"><path fill-opacity=".01" fill="#fff" d="M0 1h48v48H0z"/><path stroke-linejoin="round" stroke-linecap="round" stroke-width="4" stroke="#333" d="M6 27v16M6 34h7l4-6M7 21l26.474 17.649a1 1 0 0 0 1.069.025L44 33" data-follow-stroke="#333"/><path stroke-width="4" stroke="#333" d="M7.078 13.719a1 1 0 0 1-.11-1.58l7.46-6.63a1 1 0 0 1 1.212-.09l27.065 17.732a1 1 0 0 1-.011 1.68l-9.144 5.82a1 1 0 0 1-1.092-.012l-25.38-16.92z" data-follow-stroke="#333"/></svg>